<svg width="180" height="42" viewBox="0 0 180 42" fill="none" xmlns="http://www.w3.org/2000/svg">
<path fill-rule="evenodd" clip-rule="evenodd" d="M139.463 31.1695C137.569 30.5322 135.507 30.2227 133.158 30.2227C126.756 30.2227 123.509 32.5653 120.369 34.8307C117.154 37.1506 114.118 39.3413 107.883 39.3413C105.778 39.3413 104.038 39.0909 102.532 38.6709C110.06 38.395 111.343 33.5816 111.513 31.5615C111.589 30.6701 110.425 30.5405 110.307 31.8311C110.223 32.7463 110.004 33.2539 109.818 33.5282C109.718 33.676 109.491 33.634 109.451 33.4603C109.348 33.0268 109.125 32.3823 108.712 32.5119C107.988 32.739 108.385 34.3563 108.067 35.0692C108.026 35.1641 107.913 35.2041 107.822 35.1538C107.605 35.033 107.173 34.8976 106.869 35.482C106.729 35.7527 106.613 36.2525 106.435 36.7622C106.267 37.2392 105.883 37.6115 105.397 37.7469C104.173 38.0875 102.646 38.2752 100.804 38.0761C100.801 38.0756 100.798 38.0761 100.794 38.0761C98.7198 37.2278 97.0833 36.0472 95.3981 34.8312C92.2584 32.5653 89.0128 30.2227 82.6109 30.2227C76.209 30.2227 72.9633 32.5653 69.8236 34.8307C66.6095 37.1506 63.5733 39.3413 57.339 39.3413C55.0279 39.3413 53.1571 39.0401 51.5531 38.5433C59.1809 38.311 60.475 33.4598 60.6472 31.4292C60.7222 30.5384 59.559 30.4088 59.44 31.6994C59.3562 32.6146 59.1379 33.1222 58.9522 33.3965C58.8524 33.5443 58.6243 33.5028 58.584 33.3286C58.4821 32.8951 58.2586 32.2506 57.8459 32.3802C57.1217 32.6073 57.5184 34.2246 57.2009 34.9381C57.159 35.0324 57.0462 35.0724 56.9557 35.0221C56.7384 34.9012 56.306 34.7659 56.0029 35.3503C55.8628 35.621 55.7469 36.1208 55.5684 36.6305C55.4009 37.1075 55.0171 37.4798 54.5303 37.6152C53.306 37.9553 51.7802 38.143 49.9378 37.9444C49.9378 37.9439 49.9372 37.9444 49.9372 37.9439C48.0095 37.1081 46.4541 35.9855 44.8543 34.8312L44.2367 34.3869C44.1209 34.3034 43.959 34.3304 43.8757 34.447C43.7929 34.5637 43.8198 34.7255 43.9362 34.809L44.5517 35.2518C47.6909 37.5172 50.9371 39.8598 57.339 39.8598C63.7403 39.8598 66.9865 37.5172 70.1257 35.2518C71.7493 34.0799 73.3279 32.9412 75.296 32.1007C76.8581 32.0017 78.1776 32.1795 79.2581 32.4803C79.7443 32.6156 80.1286 32.9874 80.2962 33.465C80.4752 33.9747 80.5905 34.4745 80.7307 34.7452C81.0343 35.3295 81.4667 35.1942 81.6834 35.0734C81.774 35.0231 81.8867 35.063 81.9291 35.1574C82.2462 35.8709 81.8495 37.4881 82.5736 37.7152C82.9864 37.8449 83.2098 37.1998 83.3117 36.7669C83.3526 36.5927 83.5802 36.5512 83.68 36.699C83.8657 36.9732 84.084 37.4809 84.1678 38.3961C84.2867 39.6867 85.45 39.557 85.375 38.6657C85.2064 36.6756 83.9588 31.9737 76.7231 31.5713C78.3498 31.0554 80.2512 30.7412 82.6109 30.7412C88.8462 30.7412 91.8819 32.9319 95.096 35.2518C98.2357 37.5172 101.481 39.8598 107.883 39.8598C114.285 39.8598 117.531 37.5172 120.672 35.2518C123.886 32.9319 126.922 30.7412 133.158 30.7412C135.45 30.7412 137.459 31.0419 139.298 31.661C139.434 31.7067 139.581 31.6335 139.625 31.4977C139.671 31.3624 139.598 31.2151 139.463 31.1695Z" fill="#837875"/>
<path fill-rule="evenodd" clip-rule="evenodd" d="M51.9961 35.6648C51.9961 36.2056 52.4332 36.6437 52.9726 36.6437C53.5121 36.6437 53.9497 36.2056 53.9497 35.6648C53.9497 35.124 53.5121 34.6853 52.9726 34.6853C52.4332 34.6853 51.9961 35.124 51.9961 35.6648Z" fill="#837875"/>
<path fill-rule="evenodd" clip-rule="evenodd" d="M88.7341 38.2522C88.7341 38.2522 89.7717 39.2498 90.4715 40.2542C90.7472 40.6503 91.189 40.3693 91.1378 40.0655C91.1238 39.9799 91.1998 39.9089 91.2846 39.9275C91.4936 39.9742 91.7724 39.9903 91.8345 39.7575C92.1262 38.6629 88.7341 38.2522 88.7341 38.2522Z" fill="#837875"/>
<path fill-rule="evenodd" clip-rule="evenodd" d="M133.511 31.6285C132.906 31.2858 131.996 32.6044 129.711 32.4395C130.201 32.7993 132.561 34.3342 135.027 32.5012C135.45 32.1865 135.029 31.5139 134.412 31.9661C133.975 32.2865 133.806 32.4623 133.613 32.4872C133.508 32.5002 133.438 32.3825 133.499 32.2964C133.651 32.0817 133.787 31.7851 133.511 31.6285Z" fill="#837875"/>
<path fill-rule="evenodd" clip-rule="evenodd" d="M133.554 33.7879C134.572 34.4101 134.649 35.2496 134.959 35.3792C135.264 35.5073 135.333 35.2568 135.349 35.0769C135.359 34.9546 135.482 35.0007 135.528 35.0396C136.044 35.4736 135.938 35.8583 136.349 36.0154C136.672 36.1388 137.329 35.6675 136.598 34.84C135.456 33.5478 133.554 33.7879 133.554 33.7879Z" fill="#837875"/>
<path fill-rule="evenodd" clip-rule="evenodd" d="M137.693 33.903C137.405 33.8932 137.165 34.1192 137.155 34.4075C137.145 34.6958 137.371 34.9375 137.658 34.9473C137.946 34.9572 138.187 34.7311 138.197 34.4428C138.206 34.1545 137.981 33.9129 137.693 33.903Z" fill="#837875"/>
<path fill-rule="evenodd" clip-rule="evenodd" d="M137.593 33.2032C137.784 32.917 137.126 32.4021 136.383 32.5997C136.002 32.7013 135.253 33.1104 134.877 33.3121C135.634 33.4241 137.414 33.4708 137.593 33.2032Z" fill="#837875"/>
<path fill-rule="evenodd" clip-rule="evenodd" d="M132.234 33.8988C132.234 33.8988 132.684 34.6678 133.011 35.1961C133.316 35.6882 133.901 35.4699 133.857 35.1142C133.758 34.3198 132.234 33.8988 132.234 33.8988Z" fill="#837875"/>
<path fill-rule="evenodd" clip-rule="evenodd" d="M127.44 32.6338C126.926 32.6432 126.518 33.0678 126.527 33.5822C126.536 34.0966 126.96 34.5062 127.473 34.4969C127.986 34.4875 128.395 34.0629 128.386 33.5485C128.376 33.0341 127.953 32.6245 127.44 32.6338Z" fill="#837875"/>
<path fill-rule="evenodd" clip-rule="evenodd" d="M125.066 35.1237C125.43 35.1169 125.72 34.8157 125.714 34.4501C125.707 34.0846 125.406 33.7937 125.042 33.8004C124.677 33.8066 124.387 34.1084 124.393 34.474C124.4 34.8395 124.701 35.1304 125.066 35.1237Z" fill="#837875"/>
<path fill-rule="evenodd" clip-rule="evenodd" d="M93.9917 36.4045C93.5463 36.4128 93.191 36.7815 93.1992 37.2285C93.207 37.6754 93.5748 38.0311 94.0211 38.0234C94.4665 38.0151 94.8213 37.6464 94.8135 37.1994C94.8053 36.7525 94.4375 36.3968 93.9917 36.4045Z" fill="#837875"/>
<path fill-rule="evenodd" clip-rule="evenodd" d="M61.4559 36.5157C61.76 36.4307 62.1831 36.2777 62.329 36.0553C62.5488 35.7193 62.3988 35.0888 61.009 35.445C59.6331 35.7976 57.6956 37.4693 57.6956 37.4693C57.6956 37.4693 60.799 37.6969 61.2945 37.2002C61.4404 37.0539 61.4156 36.9145 61.3462 36.8061C61.2759 36.6962 61.3302 36.551 61.4559 36.5157Z" fill="#837875"/>
<path fill-rule="evenodd" clip-rule="evenodd" d="M66.0639 33.3817C66.8666 33.2075 66.8392 32.3198 64.974 32.3229C62.0594 32.3286 60.2335 35.0181 60.2335 35.0181C62.2213 34.2933 63.2232 35.2494 63.8211 35.013C64.343 34.8061 64.0875 34.3954 63.8749 34.1766C63.804 34.104 63.8604 33.9764 63.9608 33.9904C64.7232 34.0993 65.8254 35.0197 66.3209 34.4187C66.5651 34.1227 66.3085 33.853 66.0116 33.6638C65.8932 33.5886 65.9273 33.4113 66.0639 33.3817Z" fill="#837875"/>
<path fill-rule="evenodd" clip-rule="evenodd" d="M64.1662 30.6167C64.1445 30.0982 62.8881 30.0598 62.1619 30.9626C61.6234 31.632 60.9122 33.3213 60.9122 33.3213C60.9122 33.3213 64.1915 31.2322 64.1662 30.6167Z" fill="#837875"/>
<path fill-rule="evenodd" clip-rule="evenodd" d="M67.1832 31.0963C67.3725 30.9833 67.6136 30.7847 67.4744 30.5793C66.7736 29.5464 64.1124 31.7662 64.1124 31.7662C64.1124 31.7662 65.5591 31.5552 66.8051 31.9166C67.3193 32.0654 67.4729 31.5495 67.1708 31.3032C67.101 31.2472 67.1067 31.1419 67.1832 31.0963Z" fill="#837875"/>
<mask id="mask0_1_6" style="mask-type:luminance" maskUnits="userSpaceOnUse" x="65" y="38" width="8" height="4">
<path fill-rule="evenodd" clip-rule="evenodd" d="M65.4295 38.8352H72.0059V41.549H65.4295V38.8352Z" fill="white"/>
</mask>
<g mask="url(#mask0_1_6)">
<path fill-rule="evenodd" clip-rule="evenodd" d="M65.4295 39.2432C66.69 39.5185 67.0428 40.1081 67.4804 40.3513C67.9004 40.5851 68.1093 40.3274 68.1931 40.1662C68.2288 40.0977 68.3111 40.077 68.3762 40.1185C68.8567 40.4244 69.2654 41.5714 69.7981 41.4168C70.1023 41.3287 69.9786 40.8444 69.8664 40.5395C69.8214 40.4177 69.9398 40.2994 70.0598 40.3482C70.2828 40.4394 70.6221 40.6598 71.0436 41.1871C71.6354 41.9255 72.2752 41.3894 71.8878 40.8636C69.494 37.6151 65.4295 39.2432 65.4295 39.2432Z" fill="#837875"/>
</g>
<path fill-rule="evenodd" clip-rule="evenodd" d="M71.1092 37.077C70.9277 37.0091 70.6132 37.1014 70.3975 37.1833C70.3075 37.217 70.2129 37.1543 70.2061 37.0583C70.2004 36.9655 70.1544 36.8727 70.006 36.8499C69.5001 36.7716 67.728 38.3277 67.728 38.3277C67.728 38.3277 69.631 38.3961 70.5941 38.0083C71.567 37.6168 71.3834 37.1797 71.1092 37.077Z" fill="#837875"/>
<path fill-rule="evenodd" clip-rule="evenodd" d="M72.6034 37.2532C72.1917 37.3081 71.9672 38.2306 70.4144 38.7009C70.4144 38.7009 72.6096 39.601 74.3879 38.4261C75.5258 37.6742 75.186 37.122 74.6263 37.3403C74.5312 37.3776 74.4391 37.2832 74.481 37.1894C74.586 36.954 74.6336 36.6864 74.3656 36.6045C73.822 36.4386 73.5205 37.4445 73.0999 37.8189C73.0446 37.8686 72.9587 37.8137 72.9722 37.7401C73.0141 37.5207 73.0094 37.1992 72.6034 37.2532Z" fill="#837875"/>
<path fill-rule="evenodd" clip-rule="evenodd" d="M71.7245 39.616C72.1057 39.8887 72.8666 40.4404 73.2679 40.6048C74.0505 40.9252 74.8409 40.456 74.6717 40.1163C74.5145 39.7995 72.5247 39.6403 71.7245 39.616Z" fill="#837875"/>
<path fill-rule="evenodd" clip-rule="evenodd" d="M75.6073 38.6639C75.1346 38.7598 74.0194 39.2674 74.0194 39.2674C74.0194 39.2674 75.8996 39.6781 76.2027 39.2311C76.3418 39.0258 76.2208 38.5394 75.6073 38.6639Z" fill="#837875"/>
<path fill-rule="evenodd" clip-rule="evenodd" d="M77.4129 33.0984C76.8998 33.1078 76.4912 33.5319 76.5005 34.0468C76.5098 34.5612 76.9329 34.9708 77.4465 34.9615C77.9596 34.9521 78.3682 34.5275 78.3589 34.0131C78.3496 33.4987 77.926 33.0891 77.4129 33.0984Z" fill="#837875"/>
<path fill-rule="evenodd" clip-rule="evenodd" d="M75.0388 35.588C75.4035 35.5813 75.6937 35.28 75.6869 34.9145C75.6802 34.5489 75.3797 34.258 75.015 34.2648C74.6504 34.271 74.3602 34.5728 74.3669 34.9383C74.3731 35.3039 74.6742 35.5948 75.0388 35.588Z" fill="#837875"/>
<path fill-rule="evenodd" clip-rule="evenodd" d="M103.839 34.817C103.299 34.817 102.862 35.2557 102.862 35.7965C102.862 36.3373 103.299 36.7755 103.839 36.7755C104.378 36.7755 104.816 36.3373 104.816 35.7965C104.816 35.2557 104.378 34.817 103.839 34.817Z" fill="#837875"/>
<path fill-rule="evenodd" clip-rule="evenodd" d="M112.322 36.6476C112.627 36.5626 113.049 36.4096 113.195 36.1867C113.415 35.8512 113.265 35.2202 111.875 35.5769C110.5 35.9295 108.562 37.6007 108.562 37.6007C108.562 37.6007 111.665 37.8288 112.161 37.3316C112.307 37.1859 112.282 37.0459 112.213 36.9375C112.142 36.8276 112.197 36.6824 112.322 36.6476Z" fill="#837875"/>
<path fill-rule="evenodd" clip-rule="evenodd" d="M116.93 33.5134C117.733 33.3392 117.705 32.4515 115.841 32.4551C112.926 32.4603 111.1 35.1498 111.1 35.1498C113.087 34.4249 114.09 35.3811 114.688 35.1446C115.21 34.9383 114.954 34.5271 114.741 34.3083C114.671 34.2357 114.727 34.1081 114.827 34.1226C115.589 34.231 116.692 35.1514 117.187 34.5504C117.432 34.2543 117.175 33.9847 116.878 33.7955C116.76 33.7208 116.794 33.5435 116.93 33.5134Z" fill="#837875"/>
<path fill-rule="evenodd" clip-rule="evenodd" d="M115.032 30.7484C115.011 30.2299 113.754 30.1915 113.029 31.0943C112.49 31.7637 111.778 33.453 111.778 33.453C111.778 33.453 115.058 31.3639 115.032 30.7484Z" fill="#837875"/>
<path fill-rule="evenodd" clip-rule="evenodd" d="M118.049 31.2279C118.239 31.1148 118.48 30.9163 118.341 30.7109C117.64 29.678 114.979 31.8978 114.979 31.8978C114.979 31.8978 116.425 31.6868 117.672 32.0482C118.185 32.1975 118.34 31.6811 118.037 31.4348C117.968 31.3788 117.973 31.2735 118.049 31.2279Z" fill="#837875"/>
<path fill-rule="evenodd" clip-rule="evenodd" d="M86.0224 32.8951C85.5268 32.3984 82.4234 32.626 82.4234 32.626C82.4234 32.626 84.361 34.2977 85.7368 34.6503C87.1267 35.0071 87.2767 34.376 87.0568 34.04C86.911 33.8176 86.4879 33.6646 86.1837 33.5796C86.0581 33.5443 86.0037 33.3997 86.0741 33.2892C86.1434 33.1814 86.1682 33.0414 86.0224 32.8951Z" fill="#837875"/>
<path fill-rule="evenodd" clip-rule="evenodd" d="M89.7019 37.772C91.5671 37.7756 91.5945 36.8879 90.7917 36.7137C90.6552 36.6836 90.621 36.5063 90.7395 36.4316C91.0364 36.2424 91.2929 35.9727 91.0488 35.6767C90.5533 35.0757 89.451 35.9961 88.6886 36.1045C88.5883 36.119 88.5319 35.9914 88.6028 35.9188C88.8154 35.7 89.0709 35.2888 88.549 35.0825C87.951 34.846 86.9492 35.8022 84.9609 35.0773C84.9609 35.0773 86.7873 37.7668 89.7019 37.772Z" fill="#837875"/>
<path fill-rule="evenodd" clip-rule="evenodd" d="M85.64 36.7739C85.64 36.7739 86.3512 38.4633 86.8897 39.1332C87.6159 40.0354 88.8723 39.997 88.894 39.4785C88.9193 38.863 85.64 36.7739 85.64 36.7739Z" fill="#837875"/>
<path fill-rule="evenodd" clip-rule="evenodd" d="M117.018 38.7895C118.279 39.0648 118.631 39.6544 119.069 39.8981C119.489 40.1314 119.698 39.8737 119.782 39.7124C119.817 39.644 119.9 39.6233 119.965 39.6647C120.446 39.9712 120.854 41.1176 121.387 40.9631C121.691 40.875 121.568 40.3912 121.455 40.0858C121.41 39.9644 121.529 39.8457 121.648 39.8944C121.872 39.9857 122.211 40.2061 122.633 40.7334C123.224 41.4718 123.864 40.9356 123.477 40.4099C121.083 37.1613 117.018 38.7895 117.018 38.7895Z" fill="#837875"/>
<path fill-rule="evenodd" clip-rule="evenodd" d="M122.698 36.6233C122.516 36.5554 122.202 36.6477 121.986 36.7296C121.896 36.7633 121.802 36.7011 121.795 36.6051C121.789 36.5118 121.743 36.419 121.595 36.3962C121.089 36.3179 119.317 37.8739 119.317 37.8739C119.317 37.8739 121.22 37.9424 122.183 37.5545C123.156 37.1631 122.973 36.7259 122.698 36.6233Z" fill="#837875"/>
<path fill-rule="evenodd" clip-rule="evenodd" d="M124.192 36.7994C123.78 36.8544 123.556 37.7768 122.004 38.2471C122.004 38.2471 124.199 39.1473 125.977 37.9723C127.115 37.2205 126.775 36.6688 126.215 36.8865C126.12 36.9239 126.028 36.8295 126.07 36.7357C126.175 36.5002 126.223 36.2327 125.954 36.1508C125.411 35.9848 125.11 36.9908 124.689 37.3657C124.634 37.4149 124.548 37.36 124.561 37.2863C124.603 37.067 124.598 36.7455 124.192 36.7994Z" fill="#837875"/>
<path fill-rule="evenodd" clip-rule="evenodd" d="M123.313 39.1622C123.695 39.435 124.455 39.9867 124.857 40.151C125.639 40.4715 126.43 40.0022 126.261 39.6626C126.103 39.3458 124.113 39.1866 123.313 39.1622Z" fill="#837875"/>
<path fill-rule="evenodd" clip-rule="evenodd" d="M127.196 38.2101C126.724 38.3061 125.609 38.8137 125.609 38.8137C125.609 38.8137 127.488 39.2244 127.791 38.7774C127.931 38.5721 127.81 38.0857 127.196 38.2101Z" fill="#837875"/>
<path fill-rule="evenodd" clip-rule="evenodd" d="M98.4751 30.158C98.8801 29.6457 98.2589 29.0883 97.6428 29.8059C97.2032 30.3182 96.8566 30.5272 96.6306 30.6107C96.509 30.6553 96.3952 30.5329 96.4433 30.4131C96.5664 30.1119 96.7066 29.6322 96.4056 29.5337C95.878 29.3616 95.4311 30.493 94.9402 30.7828C94.874 30.8222 94.7923 30.7984 94.7587 30.7289C94.6806 30.565 94.4804 30.3001 94.0526 30.5194C93.6073 30.7481 93.2349 31.3247 91.9656 31.5575C91.9656 31.5575 95.9726 33.323 98.4751 30.158Z" fill="#837875"/>
<path fill-rule="evenodd" clip-rule="evenodd" d="M94.2321 32.5508C94.2321 32.5508 95.9498 34.166 96.4588 34.1053C96.6077 34.0872 96.6564 33.9964 96.6657 33.9031C96.6755 33.8077 96.7722 33.7486 96.8607 33.7854C97.0738 33.8746 97.3852 33.9772 97.5688 33.9155C97.8465 33.8227 98.0446 33.3923 97.0857 32.9677C96.1365 32.5472 94.2321 32.5508 94.2321 32.5508Z" fill="#837875"/>
<path fill-rule="evenodd" clip-rule="evenodd" d="M101.093 33.7722C101.644 34.0097 102.003 33.4694 100.891 32.6791C99.154 31.444 96.9293 32.2695 96.9293 32.2695C98.465 32.7922 98.6579 33.7214 99.0681 33.7908C99.4716 33.8588 99.4871 33.5368 99.4535 33.3164C99.4421 33.2428 99.53 33.1904 99.5838 33.2417C99.9914 33.6306 100.259 34.6459 100.807 34.4986C101.078 34.4266 101.039 34.1569 100.942 33.9179C100.904 33.8235 100.998 33.7317 101.093 33.7722Z" fill="#837875"/>
<path fill-rule="evenodd" clip-rule="evenodd" d="M101.233 30.9995C101.413 30.6661 100.639 30.1699 99.8458 30.4634C99.4387 30.6138 98.6603 31.1401 98.2692 31.3993C99.0699 31.4024 101.064 31.3112 101.233 30.9995Z" fill="#837875"/>
<path fill-rule="evenodd" clip-rule="evenodd" d="M102.732 31.9363C102.445 31.4795 100.552 31.8259 100.552 31.8259C100.552 31.8259 101.649 32.3708 102.118 32.4828C102.727 32.628 102.865 32.1458 102.732 31.9363Z" fill="#837875"/>
<path fill-rule="evenodd" clip-rule="evenodd" d="M55.1293 20.3636C50.229 20.3636 46.9367 16.5183 46.9367 10.7954C46.9367 4.20659 50.7147 1.20592 54.2247 1.20592C56.8911 1.20592 58.5167 2.80607 58.5328 2.82214L58.7117 3.00207L59.1705 1.10118L59.0681 1.05088C58.9812 1.00785 56.9076 0.000366211 54.5231 0.000366211C53.0236 0.000366211 51.6219 0.276737 50.3562 0.822737C49.1361 1.34903 48.0648 2.11385 47.1726 3.09696C46.2943 4.064 45.6131 5.21666 45.1461 6.52229C44.6748 7.83933 44.4364 9.27718 44.4364 10.7954C44.4364 12.2768 44.663 13.6836 45.1098 14.9757C45.5635 16.286 46.2307 17.4418 47.094 18.4114C48.9457 20.4912 51.5847 21.5904 54.7264 21.5904C57.0121 21.5904 58.7061 20.8173 58.7769 20.7847L58.8328 20.7587L59.3009 19.351L58.9698 19.5532C58.9564 19.561 57.6048 20.3636 55.1293 20.3636Z" fill="#837875"/>
<mask id="mask1_1_6" style="mask-type:luminance" maskUnits="userSpaceOnUse" x="0" y="0" width="21" height="25">
<path fill-rule="evenodd" clip-rule="evenodd" d="M0 0.427856H20.5205V24.9444H0V0.427856Z" fill="white"/>
</mask>
<g mask="url(#mask1_1_6)">
<path fill-rule="evenodd" clip-rule="evenodd" d="M14.9886 1.63289V19.892H5.00166C5.37873 19.149 6.56425 16.6113 7.8227 11.8182C8.69477 8.41252 9.28184 4.89437 9.52287 1.63289H14.9886ZM17.3063 19.892V0.427856H5.60839V1.21912L8.32442 1.61267C8.21839 3.47519 7.72494 7.55593 6.49959 11.7087C5.12011 16.2982 3.67804 19.0556 3.20787 19.892H-6.10352e-05V24.9444H0.804767L1.98511 21.0976H18.5343L19.6825 24.9444H20.5205V19.892H17.3063Z" fill="#837875"/>
</g>
<path fill-rule="evenodd" clip-rule="evenodd" d="M61.3931 0.427734V2.04033L67.33 1.51455V21.0974H69.6472V1.51455L75.6167 2.04033V0.427734H61.3931Z" fill="#837875"/>
<path fill-rule="evenodd" clip-rule="evenodd" d="M89.4405 0.427734V11.7169C87.8075 15.1734 83.4255 18.3928 80.8263 19.5854V0.427734H78.5091V21.0974H80.3841L80.4094 21.0871C82.7732 20.1335 87.0384 17.5051 89.4405 14.0575V21.0974H91.3181V0.427734H89.4405Z" fill="#837875"/>
<path fill-rule="evenodd" clip-rule="evenodd" d="M163.151 0.427734H163.123L163.097 0.438623C161.609 1.04685 159.823 2.11136 158.197 3.3584C156.966 4.30366 155.309 5.75448 154.156 7.45366V0.427734H151.839V21.0974H154.156V9.80825C155.753 6.42336 159.563 3.55544 162.681 1.95218V21.0974H164.559V0.427734H163.151Z" fill="#837875"/>
<path fill-rule="evenodd" clip-rule="evenodd" d="M116.256 17.6615C115.855 16.6172 115.255 15.6003 114.423 14.5535C113.653 13.5569 112.647 12.6635 111.436 11.9002C110.41 11.2541 109.28 10.7263 108.071 10.3281C110.377 9.48546 112.36 8.21976 113.825 6.65124C115.44 4.9702 116.313 2.9262 116.421 0.576793L116.429 0.427979H114.763L114.76 0.56746C114.741 1.48679 114.512 3.84035 112.794 5.83613C111.254 7.61516 109.504 8.80413 107.139 9.67265V0.427979H104.953V9.67161C102.604 8.79739 100.804 7.57524 99.299 5.83613C97.5807 3.83983 97.3516 1.48627 97.333 0.56746L97.3299 0.427979H95.6628L95.6716 0.578867C95.8159 2.93242 96.6901 4.9759 98.2687 6.65176C99.0213 7.45753 99.9094 8.1845 100.908 8.8119C101.859 9.40924 102.914 9.91842 104.05 10.3281C102.845 10.7226 101.712 11.2546 100.677 11.9126C99.4832 12.6718 98.4823 13.5605 97.7028 14.554C96.0585 16.6545 95.3188 18.5061 95.1466 20.9452L95.1363 21.0972H97.454L97.4638 20.9649C97.6361 18.5134 98.3354 16.4948 99.6006 14.793C100.792 13.2006 102.924 11.7166 104.953 11.055V21.0972H107.139V11.054C109.188 11.7099 111.272 13.1623 112.492 14.7935C113.755 16.4518 114.454 18.4698 114.629 20.9649L114.638 21.0972H116.957L116.946 20.9452C116.858 19.7008 116.639 18.6575 116.256 17.6615Z" fill="#837875"/>
<path fill-rule="evenodd" clip-rule="evenodd" d="M169.367 0.427734V21.0974H179.753V19.5885L171.94 20.0158L171.527 10.9402L178.67 11.0719V9.72996L171.528 9.86114L171.939 1.50988L179.753 1.97033V0.427734H169.367Z" fill="#837875"/>
<path fill-rule="evenodd" clip-rule="evenodd" d="M145.078 0.427734L145.308 9.76522H137.043L137.502 0.427734H134.915V21.0974H137.501L137.042 10.9708H145.308L145.079 21.0974H146.973V0.427734H145.078Z" fill="#837875"/>
<path fill-rule="evenodd" clip-rule="evenodd" d="M120.832 0.427734V21.0974H131.217V19.5885L123.405 20.0158L122.992 10.9402L130.135 11.0719V9.72996L122.992 9.86114L123.404 1.50988L131.217 1.97033V0.427734H120.832Z" fill="#837875"/>
<path fill-rule="evenodd" clip-rule="evenodd" d="M31.3443 20.3849C26.9146 20.373 23.9384 16.5188 23.9384 10.7949C23.9384 5.07096 26.9152 1.21681 31.3443 1.20488C35.7734 1.21681 38.7496 5.07096 38.7496 10.7949C38.7496 16.5188 35.7734 20.373 31.3443 20.3849ZM38.5034 3.04459C37.6298 2.07444 36.5814 1.32 35.3865 0.803033C34.1565 0.270514 32.7967 0.000366211 31.3443 0.000366211C29.8914 0.000366211 28.5315 0.270514 27.3015 0.803033C26.1072 1.32 25.0588 2.07444 24.1852 3.04459C23.3183 4.00696 22.6458 5.15703 22.1855 6.46318C21.7179 7.79007 21.481 9.24763 21.481 10.7949C21.481 12.3427 21.7179 13.7997 22.1855 15.1266C22.6458 16.4333 23.3183 17.5833 24.1852 18.5457C25.0588 19.5153 26.1072 20.2698 27.3015 20.7873C28.5315 21.3198 29.8914 21.5899 31.3443 21.5899C32.7967 21.5899 34.1565 21.3198 35.3865 20.7873C36.5814 20.2698 37.6298 19.5153 38.5034 18.5457C39.3698 17.5833 40.0427 16.4333 40.5031 15.1266C40.9707 13.7997 41.2076 12.3427 41.2076 10.7949C41.2076 9.24763 40.9707 7.79007 40.5031 6.46318C40.0427 5.15703 39.3698 4.00696 38.5034 3.04459Z" fill="#837875"/>
</svg>
