<svg width="175" height="52" viewBox="0 0 175 52" fill="none" xmlns="http://www.w3.org/2000/svg">
<path d="M9.61047 33.3894C8.7484 34.2265 7.6309 34.6129 6.28991 34.6129C4.94891 34.6129 3.86334 34.1943 3.00128 33.3894C2.13921 32.5522 1.43678 30.9745 0.862063 28.624C0.287351 26.2736 0 23.1182 0 19.1578C0 16.1634 0.15964 13.6197 0.446997 11.5268C0.734353 9.43394 1.18135 7.82403 1.75607 6.6971C2.33078 5.57016 3.00127 4.73301 3.7037 4.28224C4.43805 3.79926 5.30012 3.57388 6.25797 3.57388C7.59897 3.57388 8.71648 3.99246 9.57854 4.82961C10.4406 5.66676 11.175 7.27667 11.7497 9.65933C12.3244 12.042 12.6118 15.1974 12.6118 19.1578C12.6118 23.1182 12.3244 26.2736 11.7497 28.624C11.2069 30.9745 10.5045 32.5522 9.61047 33.3894ZM6.28991 32.2302C7.12005 32.2302 7.79054 31.876 8.33333 31.1355C8.87611 30.4271 9.29118 29.0748 9.6424 27.0785C9.96168 25.0822 10.1213 22.442 10.0894 19.1256C10.0575 14.2315 9.73819 10.8185 9.09962 8.85438C8.46105 6.89029 7.53512 5.92434 6.28991 5.92434C5.07662 5.92434 4.1507 6.89029 3.51213 8.85438C2.87356 10.8185 2.52235 14.2315 2.52235 19.1256C2.49042 23.9875 2.8097 27.3683 3.44827 29.3002C4.08684 31.2643 5.04469 32.2302 6.28991 32.2302Z" fill="white"/>
<path d="M19.4124 16.5178C24.6167 16.5178 27.2029 19.4478 27.2029 25.3401C27.2029 31.2645 24.5848 34.259 19.3166 34.259H15.8364V3.99271H25.5107V5.31283C25.5107 5.828 25.0957 6.24658 24.5848 6.24658H18.1352V16.55H19.4124V16.5178ZM19.3485 31.9729C21.1365 31.9729 22.4775 31.3933 23.3715 30.2342C24.2655 29.0751 24.7125 27.4651 24.7125 25.3401C24.7125 23.215 24.2655 21.6051 23.3715 20.446C22.4775 19.2868 21.1365 18.7073 19.3485 18.7073H18.1352V31.9407H19.3485V31.9729Z" fill="white"/>
<path d="M33.557 16.4854C38.7613 16.4854 41.3475 19.4154 41.3475 25.3077C41.3475 31.2322 38.7294 34.2266 33.4612 34.2266H29.981V3.96033H31.6093C31.9925 3.96033 32.3117 4.28231 32.3117 4.66869V16.5176H33.557V16.4854ZM33.4931 31.9727C35.2811 31.9727 36.6221 31.3931 37.5161 30.234C38.4101 29.0749 38.8571 27.465 38.8571 25.3399C38.8571 23.247 38.4101 21.6049 37.5161 20.4458C36.6221 19.2866 35.2811 18.7071 33.4931 18.7071H32.2798V31.9405H33.4931V31.9727ZM44.1253 3.96033H45.6259C46.1049 3.96033 46.488 4.34671 46.488 4.82968V34.2266H44.1253V3.96033Z" fill="white"/>
<path d="M74.5852 6.27869H69.2212V17.8378H74.0424C74.4255 17.8378 74.7448 18.1598 74.7448 18.5462V20.0273H69.2212V31.844H75.0003C75.3515 31.844 75.6708 32.1338 75.6708 32.5202V34.1945H66.8266V3.92822H75.6708V5.21615C75.6388 5.82791 75.1599 6.27869 74.5852 6.27869Z" fill="white"/>
<path d="M87.6757 3.96033H89.336C89.7192 3.96033 90.0384 4.28231 90.0384 4.66869V34.2266H88.2504C87.9312 34.2266 87.6757 33.969 87.6757 33.647V20.156H80.396V34.2266H78.0333V3.96033H79.6936C80.0768 3.96033 80.396 4.28231 80.396 4.66869V17.8699H87.6757V3.96033Z" fill="white"/>
<path d="M99.1378 34.613C97.254 34.613 95.8172 33.4539 94.7955 31.1034C93.7738 28.753 93.263 24.7926 93.263 19.2223C93.263 8.7579 95.3703 3.54181 99.5529 3.54181C100.862 3.54181 101.916 4.05698 102.714 5.11952C103.512 6.18205 104.055 7.98515 104.374 10.5932L103.193 10.8186C102.65 10.9152 102.139 10.561 102.043 10.0136C101.596 7.2768 100.766 5.92447 99.489 5.92447C97.0625 5.92447 95.7853 10.3678 95.6895 19.2223C95.6576 27.8836 96.839 32.2304 99.2017 32.2304C100.766 32.2304 101.788 30.3951 102.203 26.7567C102.267 26.1449 102.81 25.7263 103.416 25.8229L104.502 25.9839C104.31 28.9783 103.736 31.1678 102.778 32.5523C101.82 33.9369 100.607 34.613 99.1378 34.613Z" fill="white"/>
<path d="M118.934 34.1621H116.858C116.443 34.1621 116.028 33.9045 115.869 33.5181L109.291 19.351V34.1943H106.929V3.92803H108.238C108.812 3.92803 109.291 4.41101 109.291 4.99058V18.3528L115.485 4.82959C115.741 4.28222 116.316 3.89584 116.922 3.89584H118.551L111.494 18.6104L118.934 34.1621Z" fill="white"/>
<path d="M132.887 3.83173H132.95V34.2268H131.45C131.003 34.2268 130.652 33.8726 130.652 33.4218V18.9649C130.652 17.4515 130.684 15.3265 130.747 12.5896L122.35 34.3556H121.105V3.99272H122.478C122.989 3.99272 123.372 4.41129 123.372 4.89426V21.7983V25.6621L131.29 4.95866C131.514 4.2503 132.184 3.83173 132.887 3.83173Z" fill="white"/>
<path d="M148.755 3.83173V34.2268H147.127C146.744 34.2268 146.456 33.9048 146.456 33.5506V18.9327C146.456 17.4193 146.488 15.2943 146.552 12.5574L138.155 34.3234H136.91V3.96052H138.41C138.857 3.96052 139.176 4.31469 139.176 4.73327V21.7661V25.6299L147.063 4.99086C147.35 4.2825 148.021 3.83173 148.755 3.83173Z" fill="white"/>
<path d="M141.826 0.869415C141.188 0.869415 140.645 1.38459 140.645 2.06075V2.51152H144.828C145.466 2.51152 146.009 1.99636 146.009 1.3202V0.869415H141.826Z" fill="white"/>
<path d="M173.819 32.5523H171.009V0H170.881L164.911 2.80123L165.358 4.41114C165.421 4.63653 165.677 4.76532 165.9 4.63653L168.646 3.18761V32.5201H165.262V32.9709C165.262 33.6149 165.773 34.1622 166.443 34.1622H175V33.7114C175 33.0997 174.489 32.5523 173.819 32.5523Z" fill="white"/>
<path d="M63.7611 32.0373H62.6755V3.83173H61.4622C57.4711 3.83173 54.5657 4.95866 52.7777 7.21253C51.2451 9.11222 51.0535 11.3661 51.0535 12.171V27.433C51.0535 29.3326 50.8939 30.5884 50.5107 31.1679C50.1595 31.7475 49.521 32.0373 48.595 32.0373H48.5631V34.2268H64.3996V32.6169C64.3677 32.2949 64.0803 32.0373 63.7611 32.0373ZM52.3945 32.0373C53.065 31.1358 53.4162 29.3326 53.4162 26.628V12.0101C53.4162 11.5593 53.512 10.046 54.5976 8.66145C55.747 7.21253 57.6308 6.40758 60.217 6.21439V32.0373H52.3945Z" fill="white"/>
<path d="M155.811 27.4006H155.747L155.971 32.4235C155.971 32.8421 155.62 33.1962 155.205 33.1962H154.311V24.1808H155.684L158.908 31.0068H159.004L158.781 24.8891C158.781 24.5349 159.068 24.2774 159.387 24.2774H160.441V34.2588H159.068L155.811 27.4006ZM161.335 25.8551C161.335 25.5331 161.367 25.2755 161.463 25.0501C161.526 24.8247 161.654 24.6637 161.782 24.5027C161.91 24.374 162.069 24.2452 162.261 24.1808C162.452 24.1164 162.644 24.0842 162.867 24.0842C163.091 24.0842 163.314 24.1164 163.474 24.1808C163.666 24.2452 163.825 24.3418 163.953 24.4705C164.081 24.5993 164.208 24.7925 164.272 25.0179C164.336 25.2433 164.4 25.5331 164.4 25.8551C164.4 26.177 164.368 26.4668 164.272 26.6922C164.177 26.9176 164.081 27.1108 163.953 27.2396C163.825 27.3684 163.666 27.465 163.474 27.5294C163.283 27.5938 163.091 27.626 162.867 27.626C162.644 27.626 162.42 27.5938 162.261 27.5294C162.069 27.465 161.91 27.3684 161.782 27.2396C161.654 27.1108 161.526 26.9176 161.463 26.6922C161.367 26.4668 161.335 26.2092 161.335 25.8551ZM161.495 28.1411H164.272V28.7529C164.272 28.9461 164.113 29.0749 163.889 29.0749H161.942C161.686 29.0749 161.463 28.8817 161.463 28.6885V28.1411H161.495ZM162.42 25.8551C162.42 26.177 162.452 26.4346 162.548 26.5634C162.612 26.6922 162.74 26.7566 162.899 26.7566C162.995 26.7566 163.059 26.7566 163.123 26.7244C163.187 26.6922 163.219 26.66 163.283 26.5956C163.314 26.5312 163.346 26.4346 163.378 26.3058C163.41 26.177 163.41 26.0483 163.41 25.8551C163.41 25.5009 163.378 25.2755 163.283 25.1467C163.219 25.0179 163.091 24.9535 162.931 24.9535C162.772 24.9535 162.644 25.0179 162.58 25.1467C162.452 25.2755 162.42 25.5009 162.42 25.8551Z" fill="white"/>
<path d="M25.9257 47.46L28.3842 44.9164H29.2782L26.5323 47.6854L29.342 50.8086H28.48L26.0853 48.104L25.9257 48.265V50.8086H25.2871V44.9164H25.9257V47.46Z" fill="white"/>
<path d="M34.3548 44.9164V50.7764H33.7162V45.5281H31.4493V48.6836C31.4493 49.1987 31.4812 49.9715 30.9385 50.4867C30.683 50.712 30.3318 50.8408 29.9487 50.8408C29.9167 50.8408 29.789 50.8408 29.5975 50.7764V50.1647C29.6932 50.1969 29.789 50.2291 29.9167 50.2291C30.1722 50.2291 30.3637 50.1003 30.4915 50.0037C30.8427 49.6495 30.8107 49.0377 30.8107 48.426V44.9164H34.3548Z" fill="white"/>
<path d="M35.9831 44.9164L37.8031 48.3938L39.3037 44.9164H40.0061L37.388 50.8086H36.6856L37.4199 49.1665L35.1849 44.9164H35.9831Z" fill="white"/>
<path d="M40.8367 44.9164H43.7102V45.5281H41.4752V47.3634H42.2734C42.9759 47.3634 44.2849 47.5244 44.2849 49.0055C44.2849 50.1325 43.5506 50.7764 42.4011 50.7764H40.8367V44.9164ZM41.4752 50.1969H42.2415C42.4969 50.1969 42.9759 50.1969 43.3271 49.8749C43.4867 49.7139 43.6464 49.4563 43.6464 49.0377C43.6464 48.748 43.5825 48.3616 43.1674 48.1362C42.912 47.9752 42.5608 47.9752 42.1776 47.9752H41.5072V50.1969H41.4752Z" fill="white"/>
<path d="M46.1048 47.3312H49.0742V44.9164H49.7447V50.8086H49.0742V47.943H46.1048V50.8086H45.4663V44.9164H46.1048V47.3312Z" fill="white"/>
<path d="M51.2452 44.9164H51.8838V47.3634H52.682C53.3844 47.3634 54.6935 47.5244 54.6935 49.0055C54.6935 50.1325 53.9591 50.7764 52.8097 50.7764H51.2452V44.9164ZM51.8838 50.1969H52.6501C52.9055 50.1969 53.3844 50.1969 53.7356 49.8749C53.8953 49.7139 54.0549 49.4563 54.0549 49.0377C54.0549 48.748 53.9911 48.3616 53.576 48.1362C53.3206 47.9752 52.9693 47.9752 52.5862 47.9752H51.9157V50.1969H51.8838ZM55.9387 50.8086H55.3001V44.9486H55.9387V50.8086Z" fill="white"/>
<path d="M61.4944 46.333L57.4395 51.0662V44.9163H58.078V49.4241L62.1329 44.6909V50.8086H61.4944V46.333ZM59.0359 43.403C59.1636 43.886 59.7064 43.886 59.7702 43.886C59.8341 43.886 60.3769 43.886 60.5046 43.403L61.1112 43.5962C61.0474 43.7572 60.76 44.4656 59.7702 44.4656C58.7805 44.4656 58.4612 43.7572 58.4293 43.5962L59.0359 43.403Z" fill="white"/>
<path d="M69.732 44.9165V50.1648H70.4026V52.0001H69.7959V50.7766H65.6771V52.0001H65.0705V50.1648C65.4856 50.197 65.8368 49.8107 65.9964 49.3599C66.1241 49.0701 66.2199 48.6193 66.2199 47.8144V44.8843H69.732V44.9165ZM66.8266 47.8466C66.8266 48.6515 66.7627 49.1023 66.6031 49.4887C66.5073 49.7785 66.3476 50.0038 66.1561 50.197H69.0616V45.5605H66.7946V47.8466H66.8266Z" fill="white"/>
<path d="M70.9448 47.8786C70.9448 46.1399 72.2858 44.852 73.978 44.852C75.6703 44.852 77.0113 46.1399 77.0113 47.8786C77.0113 49.6173 75.6703 50.9052 73.978 50.9052C72.2858 50.9052 70.9448 49.6173 70.9448 47.8786ZM71.6153 47.8786C71.6153 49.2309 72.669 50.2934 73.978 50.2934C75.2871 50.2934 76.3407 49.2309 76.3407 47.8786C76.3407 46.5263 75.2871 45.4637 73.978 45.4637C72.669 45.4637 71.6153 46.5263 71.6153 47.8786Z" fill="white"/>
<path d="M78.0015 50.8087L78.9594 44.5944L81.1944 49.5529L83.4613 44.5944L84.3872 50.8087H83.7167L83.1739 46.7195L81.1944 51.0663L79.2148 46.7195L78.6401 50.8087H78.0015Z" fill="white"/>
<path d="M88.4101 47.3312H91.3794V44.9164H92.0499V50.8086H91.3794V47.943H88.4101V50.8086H87.7715V44.9164H88.4101V47.3312Z" fill="white"/>
<path d="M96.7435 49.1342H94.2531L93.5507 50.7763H92.8483L95.5303 44.6265L98.1484 50.7763H97.446L96.7435 49.1342ZM96.4881 48.5225L95.4983 46.172L94.5086 48.5225H96.4881Z" fill="white"/>
<path d="M100.703 47.8786C100.703 46.1399 102.044 44.852 103.736 44.852C105.428 44.852 106.769 46.1399 106.769 47.8786C106.769 49.6173 105.428 50.9052 103.736 50.9052C102.044 50.9052 100.703 49.6173 100.703 47.8786ZM101.341 47.8786C101.341 49.2309 102.395 50.2934 103.704 50.2934C105.013 50.2934 106.067 49.2309 106.067 47.8786C106.067 46.5263 105.013 45.4637 103.704 45.4637C102.395 45.4637 101.341 46.5263 101.341 47.8786Z" fill="white"/>
<path d="M112.388 46.2365C112.196 46.0433 111.941 45.8179 111.622 45.6891C111.302 45.5603 110.951 45.4637 110.632 45.4637C109.291 45.4637 108.301 46.5585 108.301 47.9108C108.301 49.4885 109.578 50.2934 110.664 50.2934C111.047 50.2934 111.43 50.1647 111.749 50.0359C112.069 49.8749 112.324 49.6495 112.42 49.5529V50.3578C111.781 50.8086 111.111 50.9374 110.664 50.9374C108.94 50.9374 107.663 49.6173 107.663 47.9108C107.663 46.1721 108.972 44.852 110.696 44.852C111.047 44.852 111.718 44.8842 112.42 45.4315V46.2365H112.388Z" fill="white"/>
<path d="M115.006 45.5603V50.8086H114.368V45.5603H112.931V44.9164H116.411V45.5603H115.006Z" fill="white"/>
<path d="M116.667 47.8786C116.667 46.1399 118.008 44.852 119.7 44.852C121.392 44.852 122.733 46.1399 122.733 47.8786C122.733 49.6173 121.392 50.9052 119.7 50.9052C118.008 50.9052 116.667 49.6173 116.667 47.8786ZM117.337 47.8786C117.337 49.2309 118.391 50.2934 119.7 50.2934C121.009 50.2934 122.063 49.2309 122.063 47.8786C122.063 46.5263 121.009 45.4637 119.7 45.4637C118.391 45.4637 117.337 46.5263 117.337 47.8786Z" fill="white"/>
<path d="M126.852 44.9164V47.46L129.055 44.9164H129.853L127.426 47.6854L129.949 50.8086H129.119L126.979 48.104L126.852 48.265V50.8086H126.213V48.265L126.054 48.104L123.914 50.8086H123.116L125.607 47.6854L123.18 44.9164H123.978L126.213 47.46V44.9164H126.852Z" fill="white"/>
<path d="M133.844 45.5603H131.449V47.299H133.748V47.9108H131.449V50.1969H133.844V50.8086H130.811V44.9164H133.844V45.5603Z" fill="white"/>
<path d="M135.664 47.3312H138.634V44.9164H139.304V50.8086H138.634V47.943H135.664V50.8086H135.026V44.9164H135.664V47.3312Z" fill="white"/>
<path d="M141.443 47.46L143.934 44.9164H144.796L142.082 47.6854L144.891 50.8086H143.997L141.603 48.104L141.443 48.265V50.8086H140.805V44.9164H141.443V47.46Z" fill="white"/>
<path d="M148.787 45.5603H146.392V47.299H148.691V47.9108H146.392V50.1969H148.787V50.8086H145.754V44.9164H148.787V45.5603Z" fill="white"/>
</svg>
